<svg xmlns="http://www.w3.org/2000/svg" width="491.332" height="79" viewBox="0 0 491.332 79">
  <g id="clear-logo-branco" transform="translate(18937.998 15923.5)">
    <line id="Line_936" data-name="Line 936" y2="79" transform="translate(-18675.5 -15923.5)" fill="none" stroke="#fff" stroke-width="1"/>
    <g id="Group_15970" data-name="Group 15970">
      <g id="Group_15967" data-name="Group 15967" transform="translate(-18937.998 -15922.238)">
        <path id="Path_22363" data-name="Path 22363" d="M15.082,44.585a2.255,2.255,0,0,1-3.094.78l-4.517-2.7a2.249,2.249,0,0,1-.819-.847,2.272,2.272,0,0,1-.212-.538,2.24,2.24,0,0,1,.251-1.71l5.376-8.995L14.4,26.667a2.231,2.231,0,0,1,1.763-1.091,2.369,2.369,0,0,1,.419.006l5.6.084a2.234,2.234,0,0,0,1.028-.232,7.418,7.418,0,0,1-.542-.835l-1.267-2.275-1.314-.785a7.317,7.317,0,0,0-10.035,2.528l-.838,1.4L6.251,30.439l-3.9,6.534A7.317,7.317,0,0,0,4.874,47.008l4.517,2.7a7.316,7.316,0,0,0,9.567-1.838L16.14,42.814l-1.058,1.77h0Z" transform="translate(0.127 1.978)" fill="#a1c62e"/>
        <path id="Path_22364" data-name="Path 22364" d="M26.432,28.456c-.026-.133-.055-.266-.088-.4-.042-.166-.09-.33-.143-.491-.008-.026-.019-.053-.027-.078l-.054.063c-.019.021-.035.043-.054.063-.113.127-.231.249-.353.369q-.147.142-.3.275A7.248,7.248,0,0,1,21.5,30,2.253,2.253,0,0,1,21.186,31L18.31,35.815l-.213.357a2.171,2.171,0,0,0-.137.358,2.237,2.237,0,0,0,.2,1.715l2.217,3.978L24.2,35.833,25.533,33.6a7.377,7.377,0,0,0,.45-.887,7.251,7.251,0,0,0,.452-4.257h0Z" transform="translate(1.735 2.656)" fill="#a1c62e"/>
        <path id="Path_22365" data-name="Path 22365" d="M39.247,44.91l-5.788-.088,1,1.8a2.254,2.254,0,0,1-.871,3.069L29,52.253a2.244,2.244,0,0,1-1.143.286,2.292,2.292,0,0,1-.573-.087,2.241,2.241,0,0,1-1.354-1.072l-5.1-9.152L18.606,38.25a2.245,2.245,0,0,1-.2-1.715,2.334,2.334,0,0,1,.137-.358,2.229,2.229,0,0,1,.213-.357l2.876-4.813A2.23,2.23,0,0,0,21.945,30a7.367,7.367,0,0,1-.993.053l-2.6-.04-1.337.746a7.317,7.317,0,0,0-2.829,9.955l.795,1.425L17.8,47.194,21.5,53.842a7.317,7.317,0,0,0,9.955,2.829l4.6-2.561a7.315,7.315,0,0,0,3.192-9.2l0,0v0Zm-2.791-5.1L31.9,39.737a2.247,2.247,0,0,1-1.586-.684,2.341,2.341,0,0,1-.241-.3l-.2-.364-2.729-4.9a2.244,2.244,0,0,0-.715-.775,7.251,7.251,0,0,0,.452-4.257c-.026-.133-.055-.266-.088-.4-.042-.166-.09-.33-.143-.491-.009-.026-.019-.053-.028-.078l-.082-.015.054-.063.082.015c.166.035.331.075.5.122.131.038.261.078.388.123A7.248,7.248,0,0,1,31.02,30.2a7.34,7.34,0,0,1,.542.835L32.83,33.3l3.625,6.5h0v0Z" transform="translate(1.286 2.649)" fill="#00adee"/>
        <path id="Path_22366" data-name="Path 22366" d="M53.358,32.78l-.079,5.26a7.318,7.318,0,0,1-7.428,7.207l-7.61-.114-5.788-.088-1.632-.025a7.318,7.318,0,0,1-7.207-7.428l.024-1.53,1.335-2.235a7.514,7.514,0,0,0,.451-.887,2.252,2.252,0,0,1,.715.775l2.729,4.9a2.247,2.247,0,0,0,.2.364,2.323,2.323,0,0,0,.241.3,2.243,2.243,0,0,0,1.586.684l4.554.069,10.477.158a2.246,2.246,0,0,0,1.606-.636,2.283,2.283,0,0,0,.36-.453,2.249,2.249,0,0,0,.324-1.132L48.3,32.7a2.256,2.256,0,0,0-2.222-2.29l-2.062-.032,2.97-4.969a7.314,7.314,0,0,1,6.376,7.366h0ZM33.724,25.166l-2.6-.04a7.531,7.531,0,0,0-.993.053,7.249,7.249,0,0,0-3.913,1.737c-.1.089-.2.18-.3.275-.123.119-.24.243-.353.369-.019.021-.036.043-.054.063l.028.078.054-.063.082.015c.166.035.331.075.5.122.131.038.261.078.388.123a7.252,7.252,0,0,1,3.461,2.519,2.248,2.248,0,0,1,1.028-.232l5.607.084.414.006a2.281,2.281,0,0,0,.379-.06,2.245,2.245,0,0,0,1.386-1.031l2.336-3.909-7.444-.112h0v0Z" transform="translate(2.292 2.427)" fill="#1c79be"/>
        <path id="Path_22367" data-name="Path 22367" d="M25.365,27.474l.028.078c.019-.021.036-.043.054-.063l-.082-.015Z" transform="translate(2.462 2.655)" fill="#a1c62e"/>
        <path id="Path_22368" data-name="Path 22368" d="M29.746,19.136l-.024,1.53L28.387,22.9a7.238,7.238,0,0,0-.451.888,2.252,2.252,0,0,1-.715-.775l-2.729-4.9a2.154,2.154,0,0,0-.2-.364,2.242,2.242,0,0,0-1.826-.982L17.909,16.7,7.432,16.544a2.248,2.248,0,0,0-1.606.636,2.314,2.314,0,0,0-.36.453,2.249,2.249,0,0,0-.324,1.132l-.079,5.26a2.254,2.254,0,0,0,2.222,2.29l2.061.032L6.377,31.317A7.315,7.315,0,0,1,0,23.949l.079-5.26a7.318,7.318,0,0,1,7.428-7.207l7.61.114,5.788.088,1.632.025a7.318,7.318,0,0,1,7.207,7.428h0Zm-1.92,9.891-.054.063-.081-.015c-.166-.035-.333-.075-.5-.122-.131-.038-.261-.078-.388-.123a7.252,7.252,0,0,1-3.461-2.519,2.251,2.251,0,0,1-1.028.232l-5.6-.084-.419-.006a2.345,2.345,0,0,0-.377.06,2.245,2.245,0,0,0-1.386,1.031l-2.336,3.909,7.444.112,2.6.04a7.532,7.532,0,0,0,.993-.053,7.243,7.243,0,0,0,3.913-1.738q.153-.133.3-.275c.123-.119.24-.244.353-.369.019-.021.036-.043.054-.063l-.028-.078v0Z" transform="translate(0 1.102)" fill="#1c79be"/>
        <path id="Path_22369" data-name="Path 22369" d="M39.541,22.465a7.271,7.271,0,0,1-3.476,4.391l-1.337.746-2.6-.04a7.531,7.531,0,0,0-.993.053,2.253,2.253,0,0,1,.314-1.007l2.877-4.814a2.327,2.327,0,0,0,.35-.714,2.241,2.241,0,0,0-.2-1.715l-2.217-3.978-5.1-9.152A2.245,2.245,0,0,0,25.8,5.163a2.283,2.283,0,0,0-.573-.086,2.251,2.251,0,0,0-1.144.285l-4.6,2.561a2.254,2.254,0,0,0-.871,3.069l1,1.8-5.788-.088a7.315,7.315,0,0,1,3.192-9.2L21.618.94a7.317,7.317,0,0,1,9.955,2.829l3.706,6.648L38.1,15.473l.795,1.425a7.268,7.268,0,0,1,.647,5.564v0h0ZM26.429,30.046q-.079-.242-.143-.491c-.033-.132-.062-.265-.088-.4A7.251,7.251,0,0,1,26.65,24.9a2.252,2.252,0,0,1-.715-.775l-2.73-4.9-.2-.364a2.242,2.242,0,0,0-1.826-.982l-4.554-.069,3.625,6.5,1.267,2.275a7.464,7.464,0,0,0,.542.835,7.248,7.248,0,0,0,3.461,2.519c.128.044.257.086.388.123.165.046.331.086.5.122l.081.015.054-.063-.082-.015c-.009-.027-.02-.053-.028-.078h0Z" transform="translate(1.287 -0.011)" fill="#00adee"/>
        <path id="Path_22370" data-name="Path 22370" d="M50.76,20.652l-3.9,6.534-2.969,4.969-.837,1.4a7.317,7.317,0,0,1-10.035,2.528L31.7,35.3l-1.266-2.275a7.335,7.335,0,0,0-.543-.835,2.251,2.251,0,0,1,1.028-.232l5.607.084a2.087,2.087,0,0,0,.414.006,2.281,2.281,0,0,0,.379-.06A2.245,2.245,0,0,0,38.7,30.956l2.336-3.909,5.376-8.995a2.254,2.254,0,0,0-.78-3.094l-4.517-2.7a2.254,2.254,0,0,0-3.093.78l-1.058,1.77L34.15,9.754a7.316,7.316,0,0,1,9.567-1.838l4.517,2.7A7.318,7.318,0,0,1,50.763,20.65h0l0,0ZM33.34,18.7l-2.217-3.978L27.3,21.114l-1.335,2.235a7.321,7.321,0,0,0-.9,5.143c.026.132.055.266.088.4.042.166.09.33.143.491.008.026.019.053.027.078l.082.015-.028-.078c.019-.021.035-.043.054-.063.113-.127.231-.249.353-.369q.147-.142.3-.275A7.25,7.25,0,0,1,30,26.951a2.253,2.253,0,0,1,.314-1.007l2.877-4.814.212-.354a2.279,2.279,0,0,0,.138-.359,2.237,2.237,0,0,0-.2-1.715h0Z" transform="translate(2.419 0.655)" fill="#a1c62e"/>
      </g>
      <path id="Path_22371" data-name="Path 22371" d="M94.825,10.54a3.536,3.536,0,1,1,7.063,0,3.538,3.538,0,1,1-7.063,0ZM98.1,16.019a4.044,4.044,0,0,0,3.721-1.913h.043v1.241a.4.4,0,0,0,.45.45h1.014a.4.4,0,0,0,.449-.45V5.731a.4.4,0,0,0-.449-.45h-1.014a.4.4,0,0,0-.45.45V6.972h-.043A4.152,4.152,0,0,0,98.1,5.054a5.317,5.317,0,0,0-5.259,5.483A5.316,5.316,0,0,0,98.1,16.019ZM82,9.68a3.18,3.18,0,0,1,3.412-3,3.1,3.1,0,0,1,3.315,3H82Zm3.5,6.339c2.6,0,4.355-1.328,4.941-3.04.043-.227-.135-.362-.45-.362h-.97a.528.528,0,0,0-.52.362,3.194,3.194,0,0,1-2.979,1.4A3.267,3.267,0,0,1,81.96,11.2H90.2a.465.465,0,0,0,.52-.52v-.205a5.06,5.06,0,0,0-5.281-5.417,5.259,5.259,0,0,0-5.417,5.483A5.211,5.211,0,0,0,85.5,16.02h0Zm-9.3-.223,1.039,0a.4.4,0,0,0,.45-.449V.45a.4.4,0,0,0-.45-.45H76.207a.4.4,0,0,0-.45.45v14.9a.4.4,0,0,0,.45.45h0Zm-7.881.227a4.835,4.835,0,0,0,5.037-3.678c.066-.271-.135-.428-.428-.428h-1.1a.443.443,0,0,0-.472.385,2.933,2.933,0,0,1-3,1.987,3.447,3.447,0,0,1-3.5-3.749,3.425,3.425,0,0,1,3.5-3.721,2.893,2.893,0,0,1,3,1.987.469.469,0,0,0,.5.385h1.1a.387.387,0,0,0,.428-.472,4.855,4.855,0,0,0-5.054-3.657,5.283,5.283,0,0,0-5.469,5.478,5.289,5.289,0,0,0,5.46,5.482h0Z" transform="translate(-18931.896 -15922.25)" fill="#fff"/>
      <path id="Path_22372" data-name="Path 22372" d="M103.5,15.346h1.04a.4.4,0,0,0,.45-.449V10.768c0-3,1.241-4.273,3.193-4.3.227,0,.336,0,.59.013a.355.355,0,0,0,.411-.34l.026-.9c0-.367-.109-.476-.376-.533a4.548,4.548,0,0,0-.677-.031,3.276,3.276,0,0,0-3.163,2.258h-.022V5.286a.4.4,0,0,0-.45-.45h-1.013a.4.4,0,0,0-.45.45V14.9a.394.394,0,0,0,.441.446Z" transform="translate(-18927.996 -15921.796)" fill="#fff"/>
      <g id="Group_15968" data-name="Group 15968" transform="translate(-18868.467 -15880.914)">
        <path id="Path_22373" data-name="Path 22373" d="M63.38,48.012a5.115,5.115,0,0,1,5.06-5.276,3.993,3.993,0,0,1,3.583,1.846h.044V43.388a.39.39,0,0,1,.434-.435h.977a.39.39,0,0,1,.434.435v9.25a.39.39,0,0,1-.434.435H72.5a.39.39,0,0,1-.434-.435V51.444h-.044A3.9,3.9,0,0,1,68.44,53.29a5.116,5.116,0,0,1-5.06-5.278Zm5.32,3.605a3.6,3.6,0,1,0-3.409-3.605A3.368,3.368,0,0,0,68.7,51.617Zm.63-13.182a.632.632,0,0,1,.5-.282h1.346c.369,0,.456.239.239.521L69.46,41.128a.617.617,0,0,1-.521.261H67.918c-.347,0-.478-.239-.282-.521l1.694-2.433Z" transform="translate(-63.38 -37.633)" fill="#fff"/>
        <path id="Path_22374" data-name="Path 22374" d="M78.1,52.684V44.606H76.186a.384.384,0,0,1-.413-.435v-.738A.384.384,0,0,1,76.186,43H78.1v-.891c0-2.974,1.346-4.43,3.822-4.43a4.662,4.662,0,0,1,1.39.2.425.425,0,0,1,.347.455v.76c0,.3-.174.435-.478.369a4.519,4.519,0,0,0-.934-.087c-1.607,0-2.28.695-2.28,2.693V43h3.127a.384.384,0,0,1,.413.435v.738a.384.384,0,0,1-.413.435H79.964v8.077a.39.39,0,0,1-.434.435H78.51a.384.384,0,0,1-.413-.435Z" transform="translate(-62.177 -37.679)" fill="#fff"/>
        <path id="Path_22375" data-name="Path 22375" d="M85.078,52.229v-9.25a.39.39,0,0,1,.434-.435h.977a.39.39,0,0,1,.435.435v1.585h.021a3.362,3.362,0,0,1,3.279-2.193,5.417,5.417,0,0,1,.608.043.47.47,0,0,1,.369.5v.847c0,.282-.173.391-.455.368a4.084,4.084,0,0,0-.543-.021c-2,0-3.258,1.259-3.258,4.148v3.973a.39.39,0,0,1-.434.435h-1a.39.39,0,0,1-.434-.435Z" transform="translate(-61.274 -37.223)" fill="#fff"/>
        <path id="Path_22376" data-name="Path 22376" d="M93.671,38.352A1.346,1.346,0,1,1,92.324,39.7,1.3,1.3,0,0,1,93.671,38.352Zm-.934,14.266v-9.25a.39.39,0,0,1,.434-.435h1a.39.39,0,0,1,.434.435v9.25a.39.39,0,0,1-.434.435h-1A.39.39,0,0,1,92.737,52.618Z" transform="translate(-60.571 -37.613)" fill="#fff"/>
        <path id="Path_22377" data-name="Path 22377" d="M96.918,47.607a5.093,5.093,0,0,1,5.255-5.276,4.673,4.673,0,0,1,4.864,3.518.374.374,0,0,1-.413.456H105.56a.452.452,0,0,1-.478-.369,2.786,2.786,0,0,0-2.888-1.911,3.309,3.309,0,0,0-3.366,3.583,3.316,3.316,0,0,0,3.366,3.605,2.82,2.82,0,0,0,2.888-1.911.429.429,0,0,1,.456-.368H106.6c.283,0,.478.152.413.412a4.649,4.649,0,0,1-4.842,3.54,5.081,5.081,0,0,1-5.255-5.278Z" transform="translate(-60.125 -37.227)" fill="#fff"/>
        <path id="Path_22378" data-name="Path 22378" d="M108.124,47.607a5.116,5.116,0,0,1,5.059-5.276,3.992,3.992,0,0,1,3.583,1.846h.044V42.982a.39.39,0,0,1,.435-.435h.976a.39.39,0,0,1,.435.435v9.25a.39.39,0,0,1-.435.435h-.976a.39.39,0,0,1-.435-.435V51.039h-.044a3.9,3.9,0,0,1-3.583,1.846,5.116,5.116,0,0,1-5.059-5.278Zm5.319,3.605a3.6,3.6,0,1,0-3.409-3.605A3.367,3.367,0,0,0,113.443,51.212Z" transform="translate(-59.038 -37.227)" fill="#fff"/>
        <path id="Path_22379" data-name="Path 22379" d="M124.951,52.663V38.331a.39.39,0,0,1,.434-.435h1a.39.39,0,0,1,.435.435V52.663a.39.39,0,0,1-.435.435h-1A.39.39,0,0,1,124.951,52.663Z" transform="translate(-57.404 -37.658)" fill="#fff"/>
        <path id="Path_22380" data-name="Path 22380" d="M129.583,48.631V42.963a.39.39,0,0,1,.435-.435h1.02a.384.384,0,0,1,.413.435V48.2c0,2,.89,2.976,2.562,2.976a2.885,2.885,0,0,0,3.105-3.062V42.963a.384.384,0,0,1,.413-.435h1.02a.389.389,0,0,1,.434.435v9.25a.389.389,0,0,1-.434.435h-.978a.39.39,0,0,1-.434-.435V51.019h-.065a3.72,3.72,0,0,1-3.518,1.846c-2.5,0-3.975-1.586-3.975-4.235Z" transform="translate(-56.955 -37.208)" fill="#fff"/>
        <path id="Path_22381" data-name="Path 22381" d="M140.672,50.257c-.065-.283.108-.456.391-.456h1.064c.239,0,.368.131.456.369.26.738,1.172,1.215,2.5,1.215,1.563,0,2.389-.564,2.389-1.519,0-.782-.478-1.172-1.911-1.39l-1.889-.3c-2.107-.325-3-1.3-3-2.824,0-1.759,1.39-3.018,4.191-3.018,2.5,0,3.975,1,4.277,2.866.044.261-.129.435-.412.435h-1a.432.432,0,0,1-.456-.391c-.217-.934-1.042-1.368-2.432-1.368-1.651,0-2.346.587-2.346,1.477,0,.652.391,1.043,1.868,1.282l1.91.282c2.042.327,3.018,1.238,3.018,2.889,0,1.933-1.542,3.084-4.278,3.084-2.584,0-4.017-.978-4.343-2.628Z" transform="translate(-55.88 -37.227)" fill="#fff"/>
        <path id="Path_22382" data-name="Path 22382" d="M150.451,48.012a5.309,5.309,0,1,1,5.32,5.278,5.211,5.211,0,0,1-5.32-5.278Zm5.321,3.605a3.6,3.6,0,1,0-3.409-3.605A3.368,3.368,0,0,0,155.772,51.617Zm.391-13.182a.631.631,0,0,1,.5-.282h1.347c.368,0,.456.239.239.521l-1.955,2.453a.616.616,0,0,1-.52.261H154.75c-.347,0-.478-.239-.282-.521l1.694-2.433Z" transform="translate(-54.93 -37.633)" fill="#fff"/>
        <path id="Path_22383" data-name="Path 22383" d="M163.743,52.684V44.606h-1.911a.384.384,0,0,1-.412-.435v-.738a.384.384,0,0,1,.412-.435h1.911v-.891c0-2.974,1.346-4.43,3.821-4.43a4.657,4.657,0,0,1,1.39.2.424.424,0,0,1,.348.455v.76c0,.3-.173.435-.478.369a4.514,4.514,0,0,0-.934-.087c-1.607,0-2.281.695-2.281,2.693V43h3.128a.384.384,0,0,1,.412.435v.738a.384.384,0,0,1-.412.435H165.61v8.077a.39.39,0,0,1-.434.435h-1.022a.384.384,0,0,1-.412-.435Z" transform="translate(-53.865 -37.679)" fill="#fff"/>
        <path id="Path_22384" data-name="Path 22384" d="M169.556,47.607a5.309,5.309,0,1,1,5.32,5.278A5.211,5.211,0,0,1,169.556,47.607Zm5.321,3.605a3.6,3.6,0,1,0-3.409-3.605A3.368,3.368,0,0,0,174.877,51.212Z" transform="translate(-53.076 -37.227)" fill="#fff"/>
        <path id="Path_22385" data-name="Path 22385" d="M181.752,52.232v-9.25a.39.39,0,0,1,.435-.435h.976a.39.39,0,0,1,.435.435v1.194h.043a3.779,3.779,0,0,1,3.54-1.846c2.52,0,4.04,1.586,4.04,4.256v5.646a.384.384,0,0,1-.413.435h-1.02a.39.39,0,0,1-.435-.435V47c0-1.977-.911-2.954-2.628-2.954a2.869,2.869,0,0,0-3.105,3.041v5.146a.39.39,0,0,1-.434.435h-1a.39.39,0,0,1-.435-.435Z" transform="translate(-51.892 -37.227)" fill="#fff"/>
        <path id="Path_22386" data-name="Path 22386" d="M192.759,47.607a5.116,5.116,0,0,1,5.059-5.276,4,4,0,0,1,3.584,1.846h.043V42.982a.39.39,0,0,1,.435-.435h.978a.39.39,0,0,1,.434.435v9.25a.39.39,0,0,1-.434.435h-.978a.39.39,0,0,1-.435-.435V51.039H201.4a3.9,3.9,0,0,1-3.584,1.846,5.116,5.116,0,0,1-5.059-5.278Zm5.321,3.605a3.6,3.6,0,1,0-3.409-3.605A3.368,3.368,0,0,0,198.08,51.212Z" transform="translate(-50.824 -37.227)" fill="#fff"/>
        <path id="Path_22387" data-name="Path 22387" d="M63.38,65.347a5,5,0,0,1,5.212-5.276,4.868,4.868,0,0,1,5.081,5.212v.195a.447.447,0,0,1-.5.5H65.247a3.145,3.145,0,0,0,3.431,3.061,3.075,3.075,0,0,0,2.866-1.346.507.507,0,0,1,.5-.348h.934c.3,0,.478.131.434.348-.564,1.65-2.258,2.932-4.756,2.932a4.992,4.992,0,0,1-5.276-5.278Zm8.382-.824a2.993,2.993,0,0,0-3.192-2.889,3.056,3.056,0,0,0-3.279,2.889Z" transform="translate(-63.38 -35.506)" fill="#fff"/>
        <path id="Path_22388" data-name="Path 22388" d="M80.1,69.209h-.043V70.4a.39.39,0,0,1-.435.435h-.977a.39.39,0,0,1-.434-.435V56.071a.39.39,0,0,1,.434-.435h1a.39.39,0,0,1,.434.435v6.275h.087A3.9,3.9,0,0,1,83.7,60.5a5.281,5.281,0,0,1-.021,10.554A3.9,3.9,0,0,1,80.1,69.209Zm3.344.173a3.6,3.6,0,1,0-3.409-3.605A3.385,3.385,0,0,0,83.441,69.383Z" transform="translate(-61.941 -35.936)" fill="#fff"/>
        <path id="Path_22389" data-name="Path 22389" d="M89.929,69.969v-9.25a.39.39,0,0,1,.434-.435h.977a.39.39,0,0,1,.435.435V62.3H91.8a3.362,3.362,0,0,1,3.279-2.193,5.415,5.415,0,0,1,.608.043.47.47,0,0,1,.369.5V61.5c0,.282-.174.391-.456.368a4.084,4.084,0,0,0-.543-.021c-2,0-3.258,1.259-3.258,4.148v3.973a.39.39,0,0,1-.434.435h-1a.39.39,0,0,1-.434-.435Z" transform="translate(-60.803 -35.502)" fill="#fff"/>
        <path id="Path_22390" data-name="Path 22390" d="M97,65.347a5.115,5.115,0,0,1,5.06-5.276,3.993,3.993,0,0,1,3.583,1.846h.044V60.723a.39.39,0,0,1,.434-.435h.977a.39.39,0,0,1,.434.435v9.25a.39.39,0,0,1-.434.435h-.977a.39.39,0,0,1-.434-.435V68.779h-.044a3.9,3.9,0,0,1-3.583,1.846A5.116,5.116,0,0,1,97,65.347Zm5.319,3.605a3.6,3.6,0,1,0-3.409-3.605A3.368,3.368,0,0,0,102.317,68.952Z" transform="translate(-60.117 -35.506)" fill="#fff"/>
        <path id="Path_22391" data-name="Path 22391" d="M109.511,68c-.065-.283.108-.456.391-.456h1.063a.461.461,0,0,1,.456.369c.261.738,1.172,1.215,2.5,1.215,1.563,0,2.389-.564,2.389-1.519,0-.782-.479-1.172-1.911-1.39l-1.89-.3c-2.106-.325-3-1.3-3-2.824,0-1.759,1.39-3.018,4.191-3.018,2.5,0,3.973,1,4.278,2.866.044.261-.129.435-.412.435h-1a.432.432,0,0,1-.456-.391c-.217-.934-1.042-1.368-2.432-1.368-1.651,0-2.346.587-2.346,1.477,0,.652.391,1.043,1.867,1.282l1.911.282c2.042.327,3.018,1.238,3.018,2.889,0,1.933-1.542,3.084-4.278,3.084-2.585,0-4.017-.978-4.343-2.628Z" transform="translate(-58.904 -35.506)" fill="#fff"/>
        <path id="Path_22392" data-name="Path 22392" d="M121.23,56.092a1.346,1.346,0,0,1,0,2.692,1.346,1.346,0,1,1,0-2.692ZM120.3,70.359v-9.25a.39.39,0,0,1,.434-.435h1a.39.39,0,0,1,.435.435v9.25a.39.39,0,0,1-.435.435h-1A.39.39,0,0,1,120.3,70.359Z" transform="translate(-57.896 -35.892)" fill="#fff"/>
        <path id="Path_22393" data-name="Path 22393" d="M125.05,70.4V56.071a.39.39,0,0,1,.435-.435h1a.39.39,0,0,1,.434.435V70.4a.39.39,0,0,1-.434.435h-1A.39.39,0,0,1,125.05,70.4Z" transform="translate(-57.395 -35.936)" fill="#fff"/>
      </g>
      <g id="Group_15969" data-name="Group 15969" transform="translate(-18868.984 -15901.462)">
        <path id="Path_22394" data-name="Path 22394" d="M62.908,29.531c0-3.338,2.142-5.75,5.142-5.75a3.51,3.51,0,0,1,3.2,1.624h.068v-.948a.349.349,0,0,1,.361-.383H74.3a.349.349,0,0,1,.361.383V34.6a.332.332,0,0,1-.361.361H71.681a.332.332,0,0,1-.361-.361v-.969h-.045a3.554,3.554,0,0,1-3.224,1.624c-3,0-5.142-2.414-5.142-5.728Zm5.976,2.616a2.433,2.433,0,0,0,2.5-2.616,2.495,2.495,0,1,0-4.984,0A2.428,2.428,0,0,0,68.884,32.146Z" transform="translate(-62.908 -18.48)" fill="#fff"/>
        <path id="Path_22395" data-name="Path 22395" d="M79.234,34.646,75.085,24.475c-.113-.271.023-.428.293-.428h2.954a.412.412,0,0,1,.428.292l2.323,6.608h.068L83.5,24.34a.431.431,0,0,1,.428-.292h2.954c.271,0,.406.157.293.428L83,34.646a.432.432,0,0,1-.429.293H79.685a.46.46,0,0,1-.451-.293Z" transform="translate(-61.731 -18.454)" fill="#fff"/>
        <path id="Path_22396" data-name="Path 22396" d="M86.679,29.531c0-3.338,2.142-5.75,5.142-5.75a3.51,3.51,0,0,1,3.2,1.624h.068v-.948a.349.349,0,0,1,.361-.383h2.616a.349.349,0,0,1,.361.383V34.6a.332.332,0,0,1-.361.361H95.451a.332.332,0,0,1-.361-.361v-.969h-.045a3.554,3.554,0,0,1-3.224,1.624c-3,0-5.142-2.414-5.142-5.728Zm5.976,2.616a2.433,2.433,0,0,0,2.5-2.616,2.495,2.495,0,1,0-4.984,0A2.428,2.428,0,0,0,92.655,32.146Z" transform="translate(-60.601 -18.48)" fill="#fff"/>
        <path id="Path_22397" data-name="Path 22397" d="M99.777,35.011V19.948a.332.332,0,0,1,.361-.361h2.683a.349.349,0,0,1,.383.361V35.011a.349.349,0,0,1-.383.361h-2.683A.332.332,0,0,1,99.777,35.011Z" transform="translate(-59.33 -18.887)" fill="#fff"/>
        <path id="Path_22398" data-name="Path 22398" d="M107.038,18.949a2.076,2.076,0,1,1-2.142,2.075A2.026,2.026,0,0,1,107.038,18.949Zm-1.712,16.124V24.925a.349.349,0,0,1,.36-.383h2.683a.366.366,0,0,1,.384.383V35.073a.35.35,0,0,1-.384.361h-2.683A.332.332,0,0,1,105.326,35.073Z" transform="translate(-58.833 -18.949)" fill="#fff"/>
        <path id="Path_22399" data-name="Path 22399" d="M110.3,29.531c0-3.338,2.143-5.75,5.142-5.75a3.512,3.512,0,0,1,3.2,1.624h.068v-.948a.349.349,0,0,1,.36-.383h2.617a.349.349,0,0,1,.36.383V34.6a.332.332,0,0,1-.36.361h-2.617a.332.332,0,0,1-.36-.361v-.969h-.045a3.556,3.556,0,0,1-3.225,1.624c-3,0-5.142-2.414-5.142-5.728Zm5.977,2.616a2.434,2.434,0,0,0,2.5-2.616,2.5,2.5,0,1,0-4.984,0A2.428,2.428,0,0,0,116.281,32.146Z" transform="translate(-58.309 -18.48)" fill="#fff"/>
        <path id="Path_22400" data-name="Path 22400" d="M126.319,38.358l1.1-3.235a5.481,5.481,0,0,1-4.488-5.592,5.572,5.572,0,0,1,5.863-5.75c3,0,5.21,1.782,5.594,4.42a.322.322,0,0,1-.339.405h-2.774a.41.41,0,0,1-.406-.337,1.972,1.972,0,0,0-2.053-1.353,2.35,2.35,0,0,0-2.39,2.616,2.35,2.35,0,0,0,2.39,2.616,1.963,1.963,0,0,0,2.03-1.376.416.416,0,0,1,.429-.316h2.751c.248,0,.405.135.361.361a5.052,5.052,0,0,1-4.06,4.285l-.828,3.347a.368.368,0,0,1-.384.316H126.59c-.271,0-.384-.158-.271-.406Z" transform="translate(-57.083 -18.48)" fill="#fff"/>
        <path id="Path_22401" data-name="Path 22401" d="M134.855,29.96c0-3.338,2.143-5.75,5.142-5.75a3.512,3.512,0,0,1,3.2,1.624h.068v-.948a.349.349,0,0,1,.36-.383h2.617a.349.349,0,0,1,.36.383V35.033a.332.332,0,0,1-.36.361h-2.617a.332.332,0,0,1-.36-.361v-.969h-.045A3.556,3.556,0,0,1,140,35.688c-3,0-5.142-2.414-5.142-5.728Zm4.443-10.6a3.662,3.662,0,0,1,1.985.722,2.211,2.211,0,0,0,1.06.428c.339,0,.519-.2.587-.744a.349.349,0,0,1,.384-.361h1.623c.248,0,.384.2.361.587-.113,2.029-.924,3.045-2.345,3.045a3.652,3.652,0,0,1-1.985-.7,2.251,2.251,0,0,0-1.06-.451c-.339,0-.519.226-.587.745a.361.361,0,0,1-.383.361h-1.624a.345.345,0,0,1-.384-.384c.09-2.165.9-3.248,2.367-3.248Zm1.534,13.215a2.434,2.434,0,0,0,2.5-2.616,2.5,2.5,0,1,0-4.984,0A2.428,2.428,0,0,0,140.832,32.575Z" transform="translate(-55.926 -18.909)" fill="#fff"/>
        <path id="Path_22402" data-name="Path 22402" d="M147.481,29.531a5.982,5.982,0,1,1,5.976,5.728A5.666,5.666,0,0,1,147.481,29.531Zm5.976,2.616a2.417,2.417,0,0,0,2.481-2.616,2.484,2.484,0,1,0-4.962,0A2.428,2.428,0,0,0,153.457,32.146Z" transform="translate(-54.701 -18.48)" fill="#fff"/>
      </g>
    </g>
    <g id="Group_15973" data-name="Group 15973" transform="translate(417.2 723.981)">
      <path id="Path_22403" data-name="Path 22403" d="M332.6,289.694h15.416v4.657H337.946V297.6h9.118v4.461h-9.118v6.888H332.6Zm27.65,19.647a11.46,11.46,0,0,1-4.165-.722,9.775,9.775,0,0,1-3.313-2.066,9.247,9.247,0,0,1-2.2-3.149,10.061,10.061,0,0,1-.787-4.034V299.3a9.924,9.924,0,0,1,.787-3.936,9.839,9.839,0,0,1,5.445-5.313,10.765,10.765,0,0,1,4.133-.754,12.024,12.024,0,0,1,4.428.754,12.171,12.171,0,0,1,3.411,2.066l-3.149,3.772a7.966,7.966,0,0,0-2.132-1.345,6.093,6.093,0,0,0-2.526-.459,4.287,4.287,0,0,0-1.935.426,4.769,4.769,0,0,0-1.542,1.115,6.269,6.269,0,0,0-1.05,1.673,5.512,5.512,0,0,0-.394,2.066v.066a5.9,5.9,0,0,0,.394,2.165,5.4,5.4,0,0,0,1.082,1.706,5.527,5.527,0,0,0,1.673,1.115,5.44,5.44,0,0,0,2.1.394,5.514,5.514,0,0,0,3.083-.787V301.7h-3.8v-4h8.856v8.659a14.013,14.013,0,0,1-3.641,2.132,12.8,12.8,0,0,1-4.756.853m9.807-19.647h5.969l4.4,12.2,4.362-12.2h5.871l-7.839,19.253h-4.953Z" transform="translate(-19334.846 -16907.301)" fill="#fff"/>
      <path id="Path_22404" data-name="Path 22404" d="M251.9,296.832l6.658-6.232h14.956l-12.661,11.775Z" transform="translate(-19280.615 -16908.174)" fill="#fff"/>
      <path id="Path_22405" data-name="Path 22405" d="M168.1,290.6h15.383l16.76,19.253H184.828Z" transform="translate(-19224.301 -16908.174)" fill="#fff"/>
      <path id="Path_22406" data-name="Path 22406" d="M539,289.828h15.416v4.526H544.248v2.919h9.217v4.2h-9.217v3.05H554.58v4.526H539Zm18.3,0h15.416v4.526H562.55v2.919h9.217v4.2H562.55v3.05h10.332v4.526H557.335Zm25.846,19.548a15.109,15.109,0,0,1-4.887-.787,11.951,11.951,0,0,1-4.1-2.394l2.952-3.542a9.777,9.777,0,0,0,6.232,2.3,3.227,3.227,0,0,0,1.64-.328,1.115,1.115,0,0,0,.558-.984v-.066a.894.894,0,0,0-.131-.525,1.686,1.686,0,0,0-.492-.459,7.3,7.3,0,0,0-.984-.426,15.5,15.5,0,0,0-1.607-.426q-1.525-.344-2.853-.787a9.937,9.937,0,0,1-2.3-1.082,5.347,5.347,0,0,1-1.542-1.673,5.187,5.187,0,0,1-.558-2.493v-.066a6.1,6.1,0,0,1,.492-2.46,5.011,5.011,0,0,1,1.476-1.935,6.822,6.822,0,0,1,2.362-1.279,10.047,10.047,0,0,1,3.116-.459,13.913,13.913,0,0,1,4.4.656,11.145,11.145,0,0,1,3.51,1.935l-2.657,3.772a11.157,11.157,0,0,0-2.69-1.41,7.922,7.922,0,0,0-2.69-.492,2.456,2.456,0,0,0-1.443.361,1.041,1.041,0,0,0-.492.886v.033a1.133,1.133,0,0,0,.164.59,1.233,1.233,0,0,0,.525.459c.262.131.59.262,1.017.426.426.131.984.262,1.64.426a27.65,27.65,0,0,1,2.985.82,9.161,9.161,0,0,1,2.263,1.181,5.033,5.033,0,0,1,1.443,1.673,5.087,5.087,0,0,1,.492,2.329v.066a6.051,6.051,0,0,1-.558,2.624,5.654,5.654,0,0,1-1.574,1.968,7.707,7.707,0,0,1-2.427,1.246,17.371,17.371,0,0,1-3.28.328Zm10.332-19.548h8.233a11.32,11.32,0,0,1,3.28.459,7.378,7.378,0,0,1,2.526,1.312,5.737,5.737,0,0,1,1.607,2.132,7.258,7.258,0,0,1,.558,2.854v.066a6.347,6.347,0,0,1-2.329,5.149,7.312,7.312,0,0,1-2.624,1.312,11.9,11.9,0,0,1-3.313.426h-2.624v5.477h-5.313Zm7.872,9.577a3.3,3.3,0,0,0,2.23-.689,2.314,2.314,0,0,0,.82-1.837v-.066a2.3,2.3,0,0,0-.82-1.9,3.511,3.511,0,0,0-2.263-.656h-2.493v5.117h2.526Z" transform="translate(-19473.549 -16907.434)" fill="#fff"/>
    </g>
  </g>
</svg>
